# xmcd CD database file
#
# Track frame offsets:
#	150
#	11856
#	23478
#	34851
#	47696
#	57720
#	67792
#	79975
#	93996
#	106588
#	121446
#	132128
#	140967
#	153437
#	166363
#	176555
#
# Disc length: 2683 seconds
#
# Revision: 3
# Processed by: cddbd v1.5.2PL0 Copyright (c) Steve Scherf et al.
# Submitted via: CDex 1.79
#
DISCID=d40a7910
DTITLE=Dave Dudley - Six Days On The Road
DYEAR=2004
DGENRE=Country
TTITLE0=Six Days On The Road
TTITLE1=The Most Beautiful Girl
TTITLE2=Sentimantal Journey
TTITLE3=Have It Your Way
TTITLE4=Cowboys Boots
TTITLE5=Truck Driving Son-Of-A-Gun
TTITLE6=How Come It Took So Long To Say Goodbye
TTITLE7=You Ain't Gonna Truck With Us
TTITLE8=Me And Ole C.B.
TTITLE9=Deutschland Autobahn
TTITLE10=You Don't Have To Be A Baby To Cry
TTITLE11=Give Me Back That Old Familiar Feeling
TTITLE12=There Ain't No Easy Run
TTITLE13=The Pool Shark
TTITLE14=Fly Away Again
TTITLE15=Lying Eyes
EXTD=YEAR: 2004
EXTT0=
EXTT1=
EXTT2=
EXTT3=
EXTT4=
EXTT5=
EXTT6=
EXTT7=
EXTT8=
EXTT9=
EXTT10=
EXTT11=
EXTT12=
EXTT13=
EXTT14=
EXTT15=
PLAYORDER=
